Coordinates
version=1
nRows=11
nColumns=63
inDegrees=yes

Units are S.I. units (second, meters, Newtons, ...)
If the header above contains a line with 'inDegrees', this indicates whether rotational values are in degrees (yes) or radians (no).

endheader
time	pelvis_tilt	pelvis_list	pelvis_rotation	pelvis_tx	pelvis_ty	pelvis_tz	hip_flexion_r	hip_adduction_r	hip_rotation_r	knee_angle_r	knee_angle_r_beta	ankle_angle_r	subtalar_angle_r	mtp_angle_r	hip_flexion_l	hip_adduction_l	hip_rotation_l	knee_angle_l	knee_angle_l_beta	ankle_angle_l	subtalar_angle_l	mtp_angle_l	L5_S1_Flex_Ext	L5_S1_Lat_Bending	L5_S1_axial_rotation	L4_L5_Flex_Ext	L4_L5_Lat_Bending	L4_L5_axial_rotation	L3_L4_Flex_Ext	L3_L4_Lat_Bending	L3_L4_axial_rotation	L2_L3_Flex_Ext	L2_L3_Lat_Bending	L2_L3_axial_rotation	L1_L2_Flex_Ext	L1_L2_Lat_Bending	L1_L2_axial_rotation	L1_T12_Flex_Ext	L1_T12_Lat_Bending	L1_T12_axial_rotation	Abs_r3	Abs_r2	Abs_r1	Abs_t1	Abs_t2	neck_flexion	neck_bending	neck_rotation	arm_flex_r	arm_add_r	arm_rot_r	elbow_flex_r	pro_sup_r	wrist_flex_r	wrist_dev_r	arm_flex_l	arm_add_l	arm_rot_l	elbow_flex_l	pro_sup_l	wrist_flex_l	wrist_dev_l
0.000000	0.155612	-7.485486	91.127836	0.211501	0.980501	0.523346	2.571890	1.116846	-11.709441	10.607137	0.185129	31.638557	7.832411	0.000000	-0.953060	0.763433	8.254070	2.747292	0.047949	25.298987	-12.186631	0.000000	-0.146301	-0.204831	0.410668	-0.271696	-0.272425	0.436335	-0.240358	-0.498026	0.436335	-0.167208	-0.498026	0.359335	-0.135855	-0.417691	0.333668	-0.083596	-0.317283	0.308001	-1.045014	-2.317087	2.284014	0.000000	0.000000	26.468603	-0.952368	-1.394177	11.089600	-11.836969	62.954330	46.839244	32.062396	9.351782	6.512251	9.291304	-8.210567	47.131042	54.056499	89.677083	9.732255	5.816169
0.020833	0.308372	-7.319434	92.001818	0.210905	0.980576	0.523151	2.227302	1.350308	-11.743962	10.388263	0.181309	31.562827	7.136394	0.000000	-1.093067	0.554107	9.496510	2.704796	0.047208	25.530357	-12.406857	0.000000	-0.119258	-0.183881	0.231255	-0.221474	-0.244561	0.245709	-0.195929	-0.447087	0.245709	-0.136300	-0.447087	0.202348	-0.110743	-0.374969	0.187895	-0.068144	-0.284831	0.173442	-0.851847	-2.080094	1.286173	0.000000	0.000000	26.766990	-0.210413	-0.167377	11.663831	-11.214743	65.580161	44.952764	44.568054	8.020977	3.504614	8.820375	-7.969384	46.971721	53.037997	88.367255	11.026624	7.248720
0.041667	0.430342	-7.158559	92.748826	0.210334	0.980689	0.523002	1.914880	1.533616	-11.858736	10.201609	0.178052	31.525869	6.660030	0.000000	-1.221459	0.385986	10.499981	2.689345	0.046938	25.735046	-12.536173	0.000000	-0.097095	-0.165363	0.070235	-0.180314	-0.219933	0.074625	-0.159517	-0.402064	0.074625	-0.110969	-0.402064	0.061456	-0.090162	-0.337209	0.057066	-0.055480	-0.256147	0.052676	-0.693537	-1.870621	0.390626	0.000000	0.000000	26.951486	0.462254	0.860237	12.144897	-10.698232	67.861345	43.405178	54.565361	6.893762	0.929264	8.410091	-7.782511	46.862062	52.186667	86.994159	12.034766	8.500004
0.062500	0.523749	-7.004328	93.378851	0.209790	0.980835	0.522897	1.633804	1.671142	-12.040815	10.044626	0.175312	31.520290	6.375398	0.000000	-1.337917	0.255919	11.287214	2.697440	0.047079	25.912628	-12.586388	0.000000	-0.079359	-0.149166	-0.073626	-0.147377	-0.198391	-0.078227	-0.130379	-0.362683	-0.078227	-0.090699	-0.362683	-0.064423	-0.073693	-0.304180	-0.059821	-0.045346	-0.231058	-0.055219	-0.566853	-1.687397	-0.409485	0.000000	0.000000	27.035251	1.067871	1.706395	12.541650	-10.277911	69.822173	42.165152	62.274880	5.956441	-1.243807	8.055433	-7.644336	46.792108	51.490160	85.587619	12.784574	9.578518
0.083333	0.590822	-6.858210	93.901882	0.209277	0.981006	0.522829	1.383251	1.767257	-12.277252	9.914760	0.173045	31.538703	6.254578	0.000000	-1.442122	0.160751	11.880942	2.725577	0.047570	26.062678	-12.569308	0.000000	-0.065598	-0.135177	-0.201560	-0.121822	-0.179786	-0.214158	-0.107771	-0.328670	-0.214158	-0.074972	-0.328670	-0.176365	-0.060914	-0.275654	-0.163768	-0.037483	-0.209390	-0.151170	-0.468560	-1.529153	-1.121017	0.000000	0.000000	27.031443	1.608677	2.388829	12.862944	-9.944257	71.486933	41.201354	67.917175	5.195324	-3.044609	7.751383	-7.549246	46.751902	50.936124	84.177458	13.303944	10.492758
0.104167	0.633788	-6.721671	94.327912	0.208799	0.981198	0.522796	1.162402	1.826334	-12.555101	9.809461	0.171207	31.573718	6.269652	0.000000	-1.533755	0.097329	12.303897	2.770256	0.048350	26.184772	-12.496742	0.000000	-0.055359	-0.123285	-0.314801	-0.102808	-0.163969	-0.334476	-0.090950	-0.299754	-0.334476	-0.063270	-0.299754	-0.275451	-0.051407	-0.251402	-0.255776	-0.031632	-0.190968	-0.236101	-0.395425	-1.394621	-1.750829	0.000000	0.000000	26.953222	2.086910	2.925268	13.117631	-9.687747	72.879914	40.482449	71.712810	4.596715	-4.503152	7.492921	-7.491627	46.731487	50.512209	82.793500	13.620769	11.251219
0.125000	0.654874	-6.596180	94.666930	0.208361	0.981405	0.522791	0.970434	1.852742	-12.861414	9.726176	0.169754	31.617945	6.392697	0.000000	-1.612496	0.062501	12.578813	2.827975	0.049357	26.278485	-12.380496	0.000000	-0.048190	-0.113376	-0.414581	-0.089493	-0.150790	-0.440493	-0.079171	-0.275662	-0.440493	-0.055076	-0.275662	-0.362759	-0.044749	-0.231196	-0.336847	-0.027536	-0.175619	-0.310936	-0.344215	-1.282530	-2.305777	0.000000	0.000000	26.813746	2.504808	3.333445	13.314564	-9.498857	74.025405	39.977103	73.882350	4.146922	-5.649446	7.275028	-7.465865	46.720906	50.206066	81.465569	13.762944	11.862398
0.145833	0.656310	-6.483205	94.928926	0.207965	0.981620	0.522811	0.806526	1.850854	-13.183243	9.662355	0.168640	31.663994	6.595796	0.000000	-1.678026	0.053112	12.728421	2.895233	0.050531	26.343392	-12.232379	0.000000	-0.043637	-0.105339	-0.502134	-0.081039	-0.140100	-0.533517	-0.071692	-0.256120	-0.533517	-0.049873	-0.256120	-0.439367	-0.040522	-0.214806	-0.407984	-0.024934	-0.163169	-0.376601	-0.311698	-1.191611	-2.792719	0.000000	0.000000	26.626176	2.864609	3.631089	13.462597	-9.368065	74.947695	39.653983	74.646357	3.832253	-6.513500	7.092686	-7.466348	46.710201	50.005343	80.223487	13.758363	12.334790
0.166667	0.640321	-6.384212	95.123892	0.207615	0.981838	0.522852	0.669858	1.825040	-13.507642	9.615444	0.167821	31.704476	6.851027	0.000000	-1.730027	0.066010	12.775454	2.968529	0.051811	26.379069	-12.064197	0.000000	-0.041249	-0.099061	-0.578692	-0.076604	-0.131751	-0.614861	-0.067768	-0.240856	-0.614861	-0.047144	-0.240856	-0.506356	-0.038304	-0.202005	-0.470187	-0.023570	-0.153445	-0.434019	-0.294638	-1.120595	-3.218513	0.000000	0.000000	26.403668	3.168552	3.835932	13.570583	-9.285847	75.671074	39.481755	74.225397	3.639013	-7.125323	6.940875	-7.487462	46.689416	49.897691	79.097078	13.634922	12.676892
0.187500	0.609137	-6.300670	95.261817	0.207316	0.982053	0.522908	0.559608	1.779673	-13.821663	9.582893	0.167253	31.732001	7.130470	0.000000	-1.768179	0.098041	12.742645	3.044361	0.053134	26.385090	-11.887758	0.000000	-0.040572	-0.094430	-0.645489	-0.075347	-0.125592	-0.685832	-0.066656	-0.229597	-0.685832	-0.046370	-0.229597	-0.564803	-0.037675	-0.192562	-0.524460	-0.023183	-0.146272	-0.484117	-0.289804	-1.068212	-3.590015	0.000000	0.000000	26.159384	3.418874	3.965703	13.647373	-9.242680	76.219829	39.429085	72.840033	3.553511	-7.514926	6.814576	-7.523594	46.648594	49.870758	78.116165	13.420515	12.897200
0.208333	0.564985	-6.234047	95.352693	0.207071	0.982259	0.522976	0.474955	1.719123	-14.112359	9.562150	0.166891	31.739181	7.406206	0.000000	-1.792163	0.146052	12.652726	3.119228	0.054441	26.361032	-11.714871	0.000000	-0.041154	-0.091334	-0.703757	-0.076428	-0.121475	-0.747742	-0.067613	-0.222071	-0.747742	-0.047035	-0.222071	-0.615787	-0.038216	-0.186249	-0.571802	-0.023516	-0.141477	-0.527818	-0.293962	-1.033193	-3.914084	0.000000	0.000000	25.906481	3.617815	4.038135	13.701823	-9.229041	76.618250	39.464640	70.710829	3.562052	-7.712318	6.708770	-7.569131	46.577778	49.912195	77.310573	13.143036	13.004209
